<svg width="39" height="29" viewBox="0 0 39 29" fill="none" xmlns="http://www.w3.org/2000/svg">
<g id="Group 76">
<g id="Vector 28">
<path d="M0.556641 8.02436V15.4491C0.556641 16.3535 1.03502 17.1904 1.81431 17.6494L6.27565 20.2771C7.978 21.2798 10.1253 20.0524 10.1253 18.0767V13.7766C10.1253 12.9218 10.553 12.1237 11.2647 11.6503L15.7591 8.66085C17.3117 7.62812 17.2698 5.33355 15.6805 4.35816L11.0251 1.50095C10.1794 0.981894 9.10953 0.999773 8.28161 1.5468L1.70256 5.89377C0.987072 6.36651 0.556641 7.16681 0.556641 8.02436Z" fill="#D0D0D0"/>
<path d="M11.6379 11.9497L18.2147 7.63627C19.0427 7.0932 20.1101 7.07779 20.9534 7.59672L27.7739 11.7934C28.5292 12.2582 28.9893 13.0815 28.9893 13.9684V21.2577C28.9893 22.1197 28.5544 22.9236 27.8329 23.3952L21.2363 27.7073C20.4125 28.2459 19.3524 28.263 18.5116 27.7513L11.7109 23.6128C10.9495 23.1494 10.4847 22.3226 10.4847 21.4313V14.085C10.4847 13.2244 10.9182 12.4217 11.6379 11.9497Z" fill="#D0D0D0"/>
<path d="M37.23 5.51035L30.4115 1.35841C29.5691 0.84548 28.5067 0.863456 27.6822 1.40459L23.3184 4.26853C21.7516 5.29683 21.7893 7.60641 23.3889 8.58301L28.173 11.5039C28.9326 11.9677 29.396 12.7935 29.396 13.6835V17.617C29.396 19.6487 31.6535 20.8668 33.3517 19.7513L37.3039 17.155C38.0227 16.6829 38.4555 15.8807 38.4555 15.0207V7.69146C38.4555 6.8004 37.991 5.97378 37.23 5.51035Z" fill="#D0D0D0"/>
</g>
</g>
</svg>
