<svg width="49" height="35" viewBox="0 0 49 35" fill="none" xmlns="http://www.w3.org/2000/svg">
<g id="Vector 26">
<path d="M0.611328 9.93608V18.3699C0.611328 19.7865 1.36066 21.0975 2.58132 21.8165L6.58808 24.1764C9.2546 25.747 12.6181 23.8245 12.6181 20.7298V17.1524C12.6181 15.8135 13.288 14.5634 14.4028 13.8219L18.6508 10.9963C21.0828 9.37861 21.0172 5.78443 18.5278 4.2566L14.1791 1.58767C12.8544 0.774624 11.1786 0.802631 9.88176 1.65949L2.40627 6.59876C1.28555 7.33925 0.611328 8.59282 0.611328 9.93608Z" fill="url(#paint0_linear_0_1654)"/>
<path d="M14.8754 14.198L22.3459 9.29842C23.6429 8.44777 25.3148 8.42363 26.6358 9.23648L34.3849 14.0046C35.568 14.7325 36.2887 16.0222 36.2887 17.4113V25.6829C36.2887 27.0331 35.6075 28.2922 34.4773 29.031L26.9804 33.9317C25.6899 34.7753 24.0294 34.8021 22.7124 34.0006L14.9897 29.301C13.797 28.5752 13.0691 27.2801 13.0691 25.884V17.5428C13.0691 16.1947 13.7481 14.9373 14.8754 14.198Z" fill="url(#paint1_linear_0_1654)"/>
<path d="M46.2472 6.12104L38.5029 1.40537C37.1835 0.601933 35.5193 0.630091 34.2278 1.47771L30.2234 4.10584C27.7691 5.71655 27.8282 9.33422 30.3337 10.8639L34.8833 13.6416C36.0731 14.3681 36.7989 15.6616 36.7989 17.0556V20.0703C36.7989 23.2528 40.3352 25.1608 42.9951 23.4135L46.363 21.201C47.4889 20.4615 48.1669 19.2049 48.1669 17.8579V9.53749C48.1669 8.14175 47.4393 6.84694 46.2472 6.12104Z" fill="url(#paint2_linear_0_1654)"/>
</g>
<defs>
<linearGradient id="paint0_linear_0_1654" x1="24.3891" y1="0.0898437" x2="24.3891" y2="35.3125" gradientUnits="userSpaceOnUse">
<stop stop-color="#EF556A"/>
<stop offset="1" stop-color="#89313D"/>
</linearGradient>
<linearGradient id="paint1_linear_0_1654" x1="24.3891" y1="0.0898437" x2="24.3891" y2="35.3125" gradientUnits="userSpaceOnUse">
<stop stop-color="#EF556A"/>
<stop offset="1" stop-color="#89313D"/>
</linearGradient>
<linearGradient id="paint2_linear_0_1654" x1="24.3891" y1="0.0898437" x2="24.3891" y2="35.3125" gradientUnits="userSpaceOnUse">
<stop stop-color="#EF556A"/>
<stop offset="1" stop-color="#89313D"/>
</linearGradient>
</defs>
</svg>
