<svg width="17" height="27" viewBox="0 0 17 27" fill="none" xmlns="http://www.w3.org/2000/svg">
<path id="Vector 13" d="M16.2259 25.8903C8.99518 21.5734 5.27395 12.6313 2.96097 4.9214C2.60376 3.73068 2.27677 2.52845 2.01154 1.31356C1.95379 1.04899 1.91837 0.305304 1.77645 0.535931C1.67632 0.698632 1.73103 1.25338 1.72219 1.3859C1.64416 2.55645 1.373 3.7054 1.17062 4.85811C0.98297 5.92688 0.80434 6.99966 0.673296 8.07713C0.654286 8.23344 0.63761 8.39016 0.628085 8.54733C0.624326 8.60935 0.69002 8.43679 0.700423 8.37553C1.10637 5.98493 0.959224 3.42785 1.66794 1.09655C2.11857 -0.38579 4.20825 3.19255 4.4439 3.53794C5.49333 5.07616 6.50323 6.61308 7.76239 7.98671" stroke="#EF556A" stroke-linecap="round"/>
</svg>
