<svg width="32" height="66" viewBox="0 0 32 66" fill="none" xmlns="http://www.w3.org/2000/svg">
<path id="Vector 4" d="M30.819 1.73828C28.9048 6.00853 25.375 9.75314 23.0081 13.8157C17.0008 24.1267 11.3591 34.6402 8.50206 46.3066C7.22459 51.523 6.00781 67.5944 6.00781 62.2239C6.00781 53.3959 4.35215 44.6338 1.80697 36.1983C1.706 35.8637 1.63986 35.5046 1.44596 35.2137C1.06193 34.6377 1.54497 36.596 1.64287 37.2814C2.09389 40.4384 2.54463 43.5837 2.79154 46.7661C3.22284 52.325 2.78553 58.2526 4.49814 63.6351C5.23642 65.9554 7.38377 62.1308 8.0426 61.3377C14.6272 53.4119 20.2177 44.8092 25.5024 36.0014" stroke="#EF556A" stroke-width="2" stroke-linecap="round"/>
</svg>
