<svg width="21" height="21" viewBox="0 0 21 21" fill="none" xmlns="http://www.w3.org/2000/svg">
<g id="telegram-2 1" clip-path="url(#clip0_0_232)">
<path id="Vector" d="M6.78074 11.0312L16.2376 5.48412C16.4076 5.38471 16.5824 5.60358 16.4365 5.73252L8.63182 12.6419C8.35751 12.8851 8.18052 13.2105 8.1304 13.5638L7.86454 15.4402C7.82935 15.6908 7.45979 15.7156 7.3872 15.4732L6.36472 12.0515C6.24762 11.6612 6.41828 11.2443 6.78074 11.0312Z" fill="#C2C2C2"/>
<path id="Vector_2" d="M0.370904 10.2266L5.20973 11.9466L7.08267 17.6831C7.20252 18.0504 7.67424 18.1863 7.98736 17.9425L10.6846 15.8483C10.9673 15.6289 11.37 15.618 11.6655 15.8223L16.5304 19.1861C16.8653 19.4179 17.3399 19.2431 17.4239 18.8577L20.9877 2.53159C21.0794 2.11053 20.6449 1.75924 20.2239 1.91432L0.365244 9.21035C-0.124812 9.39035 -0.120546 10.0511 0.370904 10.2266ZM6.78084 11.0309L16.2377 5.48382C16.4077 5.38441 16.5825 5.60327 16.4366 5.73222L8.63192 12.6416C8.35761 12.8848 8.18062 13.2102 8.1305 13.5635L7.86464 15.4399C7.82945 15.6905 7.45989 15.7153 7.3873 15.4729L6.36482 12.0512C6.24772 11.6609 6.41838 11.244 6.78084 11.0309Z" fill="#AFAFAF"/>
</g>
<defs>
<clipPath id="clip0_0_232">
<rect width="21" height="20" fill="white" transform="translate(0 0.583984)"/>
</clipPath>
</defs>
</svg>
