<svg width="25" height="26" viewBox="0 0 25 26" fill="none" xmlns="http://www.w3.org/2000/svg">
<g id="vk-logo 1">
<path id="Vector" d="M23.9131 17.1305C23.3688 16.4772 22.7502 15.8916 22.152 15.3252C21.9393 15.1238 21.7194 14.9156 21.5074 14.7085C20.8987 14.1134 20.8766 13.8898 21.3585 13.2139C21.6919 12.7479 22.0454 12.2814 22.3872 11.8302C22.6973 11.4208 23.018 10.9975 23.3253 10.5728L23.3884 10.4854C23.9758 9.67267 24.5833 8.83225 24.9066 7.81842C24.9905 7.55095 25.0787 7.15733 24.8771 6.8282C24.6757 6.49934 24.285 6.39901 24.0085 6.35215C23.8718 6.32896 23.736 6.32579 23.61 6.32579L19.7633 6.32304L19.7315 6.32276C19.1499 6.32276 18.7579 6.59685 18.5333 7.16077C18.3189 7.69958 18.0834 8.27335 17.8146 8.8189C17.2797 9.90526 16.6004 11.1565 15.6174 12.2001L15.5758 12.2444C15.4597 12.3692 15.3282 12.5105 15.2321 12.5105C15.2173 12.5105 15.2013 12.5076 15.1831 12.5019C14.9795 12.4226 14.8429 11.9297 14.8491 11.7004C14.8491 11.6972 14.8492 11.6941 14.8492 11.6909L14.8465 7.24486C14.8465 7.22945 14.8454 7.21417 14.8434 7.1989C14.7456 6.47615 14.5288 6.02625 13.7098 5.86584C13.688 5.86151 13.6658 5.85938 13.6436 5.85938H9.6438C8.99213 5.85938 8.63307 6.12424 8.29554 6.52067C8.20443 6.62665 8.01478 6.84726 8.10878 7.11488C8.20415 7.38648 8.51374 7.44456 8.61455 7.46342C9.11497 7.55865 9.39703 7.86474 9.47692 8.39956C9.61641 9.32826 9.63354 10.3195 9.53087 11.5191C9.50225 11.8525 9.44561 12.11 9.3523 12.33C9.33063 12.3814 9.25376 12.5489 9.17538 12.549C9.15047 12.549 9.07842 12.5392 8.9472 12.4488C8.63692 12.2362 8.4099 11.9329 8.14525 11.5582C7.24489 10.2858 6.48925 8.88407 5.83483 7.27198C5.59213 6.67853 5.13885 6.3463 4.55793 6.33653C3.91962 6.32682 3.3409 6.32215 2.78894 6.32215C2.18586 6.32215 1.62675 6.32772 1.08079 6.33907C0.613406 6.34733 0.29012 6.48744 0.120013 6.75581C-0.050369 7.02439 -0.03929 7.37719 0.152975 7.80425C1.69206 11.2259 3.08752 13.7137 4.6778 15.8711C5.7921 17.3807 6.90977 18.4257 8.19479 19.1593C9.54863 19.9338 11.0658 20.3103 12.833 20.3103C13.0333 20.3103 13.2404 20.3055 13.4493 20.2957C14.4761 20.2457 14.857 19.874 14.9052 18.8742C14.9281 18.3633 14.984 17.8274 15.2352 17.3704C15.3937 17.0825 15.5415 17.0825 15.5901 17.0825C15.6837 17.0825 15.7997 17.1256 15.9243 17.2063C16.1478 17.3522 16.3395 17.5476 16.4966 17.7183C16.6445 17.8805 16.7907 18.0444 16.9371 18.2083C17.2529 18.5621 17.5795 18.9278 17.9207 19.2747C18.6674 20.0345 19.4901 20.3686 20.435 20.2961H23.9618C23.9693 20.2961 23.9769 20.2958 23.9844 20.2953C24.3358 20.2721 24.6402 20.0772 24.8194 19.7605C25.0415 19.3682 25.037 18.8677 24.8075 18.4214C24.547 17.9167 24.2091 17.4855 23.9131 17.1305Z" fill="#AFAFAF"/>
</g>
</svg>
